<svg width="152" height="64" viewBox="0 0 152 64" fill="none" xmlns="http://www.w3.org/2000/svg">
<mask id="mask0_705_738" style="mask-type:luminance" maskUnits="userSpaceOnUse" x="0" y="0" width="152" height="64">
<path d="M151.675 0.154297H0.326172V63.3123H151.675V0.154297Z" fill="white"/>
</mask>
<g mask="url(#mask0_705_738)">
<path d="M17.281 27.5424C18.4679 28.0336 19.5817 28.6857 20.591 29.4804C20.7991 29.6834 21.069 29.8111 21.358 29.8434C21.896 29.8434 22.246 29.036 22.408 27.4214H23.336C23.228 29.1714 23.174 32.2667 23.174 36.7074H22.246C22.0546 35.4337 21.7851 34.173 21.439 32.9324C21.1762 32.13 20.7647 31.3844 20.226 30.7344C19.4233 29.6884 18.3578 28.8737 17.138 28.3734C15.8522 27.8413 14.4724 27.5733 13.081 27.5854C11.389 27.5635 9.75164 28.1838 8.49896 29.3214C7.06999 30.6753 6.01992 32.3793 5.45296 34.2644C4.68204 36.6979 4.31385 39.2411 4.36296 41.7934C4.30364 44.3592 4.70012 46.9151 5.53396 49.3424C6.15273 51.2078 7.27797 52.8645 8.78396 54.1274C10.1153 55.1979 11.7757 55.7754 13.484 55.7624C14.8267 55.7631 16.1567 55.5026 17.4 54.9954C18.5987 54.5365 19.637 53.737 20.387 52.6954C20.9158 51.9627 21.3122 51.1429 21.558 50.2734C21.8796 48.9721 22.1092 47.6499 22.245 46.3164H23.173C23.173 50.9464 23.227 54.1764 23.335 56.0064H22.407C22.3728 55.3817 22.2571 54.7641 22.063 54.1694C21.915 53.806 21.7063 53.6244 21.437 53.6244C21.1309 53.6561 20.8386 53.7675 20.589 53.9474C19.5121 54.7335 18.3468 55.3907 17.117 55.9054C15.8382 56.3799 14.4805 56.6059 13.117 56.5714C10.7613 56.6221 8.43749 56.021 6.40196 54.8344C4.44354 53.6397 2.88397 51.8905 1.92096 49.8084C0.800446 47.3452 0.255015 44.6595 0.325956 41.9544C0.273905 39.241 0.832689 36.5506 1.96096 34.0824C2.9509 31.9119 4.53319 30.0648 6.52596 28.7534C8.5042 27.4798 10.8145 26.8189 13.167 26.8534C14.5709 26.8166 15.9688 27.0495 17.285 27.5394" fill="#231F20"/>
<path d="M43.85 51.6395C43.7711 52.5926 44.0129 53.5446 44.537 54.3445C44.8446 54.656 45.2186 54.894 45.631 55.0409C46.0435 55.1877 46.4837 55.2395 46.919 55.1925V56.0395C46.0843 55.9595 45.251 55.9192 44.419 55.9185C42.9977 55.8791 41.5793 56.0699 40.219 56.4835V51.7245C39.7147 53.2082 38.7538 54.4943 37.474 55.3985C36.3285 56.1679 34.9788 56.5761 33.599 56.5705C32.8306 56.6227 32.0598 56.5131 31.3363 56.2489C30.6129 55.9847 29.9529 55.5717 29.399 55.0365C28.8886 54.4474 28.5348 53.7393 28.37 52.9775C28.1461 51.916 28.0454 50.8322 28.07 49.7475V39.6145C28.1487 38.6615 27.9069 37.7095 27.383 36.9095C27.0754 36.598 26.7014 36.3599 26.289 36.2131C25.8765 36.0663 25.4362 36.0145 25.001 36.0615V35.2135C25.835 35.2942 26.6683 35.3345 27.501 35.3345C28.9223 35.3738 30.3406 35.183 31.701 34.7695V50.6395C31.6859 51.4706 31.7465 52.3014 31.882 53.1215C31.9843 53.7196 32.2826 54.2667 32.73 54.6765C33.3106 55.1244 34.0371 55.3401 34.768 55.2815C35.779 55.2834 36.7605 54.9402 37.55 54.3085C38.4214 53.6124 39.0963 52.7011 39.508 51.6645C39.9893 50.4932 40.2295 49.2368 40.214 47.9705V39.6145C40.2927 38.6615 40.0509 37.7095 39.527 36.9095C39.2195 36.5981 38.8457 36.3601 38.4335 36.2132C38.0212 36.0664 37.5811 36.0145 37.146 36.0615V35.2135C37.98 35.2942 38.8133 35.3345 39.646 35.3345C41.0673 35.3739 42.4856 35.1831 43.846 34.7695L43.85 51.6395Z" fill="#231F20"/>
<path d="M54.5828 52.2504C54.5363 52.6573 54.5732 53.0695 54.6913 53.4617C54.8095 53.8538 55.0063 54.2178 55.2698 54.5314C55.9629 55.0192 56.8084 55.2414 57.6518 55.1574V56.0054C55.1745 55.8987 53.5462 55.8454 52.7668 55.8454C51.9875 55.8454 50.3592 55.8987 47.8818 56.0054V55.1574C48.7249 55.2412 49.57 55.019 50.2628 54.5314C50.5262 54.2177 50.723 53.8537 50.8411 53.4616C50.9592 53.0694 50.9962 52.6573 50.9498 52.2504V29.1984C51.0275 28.247 50.7858 27.2969 50.2628 26.4984C49.9553 26.187 49.5815 25.9491 49.1692 25.8023C48.757 25.6554 48.3169 25.6035 47.8818 25.6504V24.8034C48.7158 24.8834 49.5492 24.9237 50.3818 24.9244C51.8031 24.9634 53.2214 24.7726 54.5818 24.3594L54.5828 52.2504Z" fill="#231F20"/>
<path d="M63.8689 35.2537H69.8429V36.0607H63.8689V51.6837C63.789 52.6084 64.0237 53.533 64.5349 54.3077C64.7705 54.581 65.0661 54.7962 65.3987 54.9364C65.7312 55.0765 66.0917 55.1379 66.4519 55.1157C66.8611 55.1171 67.2655 55.0272 67.6355 54.8525C68.0056 54.6777 68.3319 54.4226 68.5909 54.1057C69.3278 53.1266 69.8381 51.9961 70.0849 50.7957L70.8919 50.9957C70.2192 54.7097 68.4699 56.5667 65.6439 56.5667C64.8776 56.5895 64.1131 56.4802 63.3839 56.2437C62.7904 56.0286 62.2524 55.6839 61.8089 55.2347C61.21 54.6318 60.7845 53.8788 60.5769 53.0547C60.3186 51.9162 60.2033 50.7498 60.2339 49.5827V36.0607H56.3599V35.2537H60.2349V29.0767C61.4671 29.0682 62.6913 28.8778 63.8679 28.5117L63.8689 35.2537Z" fill="#231F20"/>
<path d="M77.513 52.2485C77.4666 52.6555 77.5037 53.0676 77.6218 53.4597C77.7399 53.8519 77.9366 54.2159 78.2 54.5295C78.8931 55.0174 79.7386 55.2396 80.582 55.1555V56.0035C78.1047 55.8969 76.4763 55.8435 75.697 55.8435C74.9177 55.8435 73.2893 55.8969 70.812 56.0035V55.1555C71.6554 55.2394 72.5008 55.0172 73.194 54.5295C73.4571 54.2157 73.6535 53.8517 73.7715 53.4595C73.8894 53.0674 73.9263 52.6554 73.88 52.2485V39.6135C73.9584 38.6607 73.717 37.7089 73.194 36.9085C72.8863 36.5972 72.5123 36.3593 72.0999 36.2126C71.6874 36.066 71.2472 36.0143 70.812 36.0615V35.2135C71.6727 35.2942 72.506 35.3345 73.312 35.3345C74.7333 35.3739 76.1516 35.1831 77.512 34.7695L77.513 52.2485Z" fill="#231F20"/>
<path d="M106.945 54.5509C107.304 54.9088 107.773 55.1362 108.277 55.1969V56.0039C106.662 55.9232 104.617 55.8829 102.141 55.8829C99.3956 55.8829 97.3502 55.9232 96.0049 56.0039V55.1969C96.7483 55.1968 97.486 55.0672 98.1849 54.8139C98.3899 54.7239 98.5621 54.5726 98.6778 54.3808C98.7934 54.1891 98.8469 53.9662 98.8309 53.7429C98.7869 53.0734 98.623 52.4174 98.3469 51.8059L95.9229 45.1819H87.1229L86.0739 47.9679C85.4431 49.3854 85.0606 50.9008 84.9429 52.4479C84.8997 52.8436 84.9609 53.2438 85.1204 53.6085C85.2799 53.9732 85.5321 54.2899 85.8519 54.5269C86.6751 54.9751 87.5997 55.2044 88.5369 55.1929V55.9999C86.7062 55.9192 85.0376 55.8789 83.5309 55.8789C82.2922 55.8789 81.2692 55.9192 80.4619 55.9999V55.1929C81.7806 54.9502 82.9379 53.5372 83.9339 50.9539L93.1339 27.3379C93.4299 27.3652 93.9009 27.3789 94.5469 27.3789C95.1929 27.3789 95.6506 27.3652 95.9199 27.3379L105.73 52.6099C105.978 53.3409 106.393 54.0042 106.941 54.5479M95.6399 44.3819L91.6399 33.4819L87.4399 44.3819H95.6399Z" fill="#231F20"/>
<path d="M125.575 35.6965C126.743 36.5519 127.634 37.7309 128.138 39.0875C128.802 40.8538 129.117 42.7322 129.066 44.6185C129.066 48.4672 128.225 51.4209 126.543 53.4795C125.722 54.4914 124.675 55.2976 123.487 55.8337C122.299 56.3698 121.002 56.6211 119.7 56.5675C118.928 56.5726 118.159 56.4637 117.419 56.2445C116.746 56.0519 116.121 55.7219 115.582 55.2755V59.3135C115.53 59.7646 115.583 60.2216 115.737 60.6487C115.891 61.0758 116.142 61.4615 116.47 61.7755C117.287 62.2955 118.25 62.5365 119.215 62.4625V63.3105L118.125 63.2695C115.138 63.1889 113.24 63.1485 112.433 63.1485C111.626 63.1485 109.93 63.2025 107.347 63.3105V62.4625C107.683 62.4974 108.023 62.4634 108.346 62.3626C108.669 62.2619 108.967 62.0965 109.224 61.8765C109.657 61.2444 109.85 60.4784 109.769 59.7165V39.5315C109.839 38.5939 109.636 37.6561 109.184 36.8315C108.949 36.5333 108.642 36.2992 108.293 36.1509C107.943 36.0027 107.562 35.9451 107.184 35.9835V35.1355C108.045 35.2162 108.878 35.2569 109.684 35.2575C111.664 35.294 113.642 35.1041 115.579 34.6915V38.4025C116.092 37.2256 116.951 36.2328 118.042 35.5565C119.19 34.8784 120.505 34.5361 121.837 34.5685C123.169 34.5479 124.475 34.9429 125.572 35.6985M121.836 52.9145C122.704 50.5174 123.088 47.972 122.967 45.4255C122.967 42.1429 122.664 39.8015 122.058 38.4015C121.452 37.0015 120.585 36.3015 119.458 36.3015C118.557 36.2963 117.686 36.6276 117.016 37.2305C116.267 37.9108 115.764 38.819 115.583 39.8145V54.3875C115.9 54.7459 116.292 55.0295 116.732 55.218C117.172 55.4065 117.648 55.4951 118.126 55.4775C118.937 55.4978 119.733 55.2606 120.4 54.7999C121.068 54.3392 121.572 53.6787 121.84 52.9135" fill="#231F20"/>
<path d="M148.183 35.6965C149.351 36.5519 150.242 37.7309 150.746 39.0875C151.41 40.8538 151.725 42.7322 151.674 44.6185C151.674 48.4672 150.833 51.4209 149.151 53.4795C148.33 54.4914 147.283 55.2976 146.095 55.8337C144.907 56.3698 143.61 56.6211 142.308 56.5675C141.536 56.5726 140.767 56.4637 140.027 56.2445C139.354 56.0519 138.729 55.7219 138.19 55.2755V59.3135C138.138 59.7646 138.191 60.2216 138.345 60.6487C138.499 61.0758 138.75 61.4615 139.078 61.7755C139.895 62.2955 140.858 62.5365 141.823 62.4625V63.3105L140.733 63.2695C137.746 63.1889 135.848 63.1485 135.041 63.1485C134.234 63.1485 132.538 63.2025 129.955 63.3105V62.4625C130.291 62.4974 130.631 62.4634 130.954 62.3626C131.276 62.2619 131.575 62.0965 131.832 61.8765C132.265 61.2444 132.458 60.4784 132.377 59.7165V39.5315C132.447 38.5939 132.244 37.6561 131.792 36.8315C131.557 36.5333 131.25 36.2992 130.901 36.1509C130.551 36.0027 130.17 35.9451 129.792 35.9835V35.1355C130.653 35.2162 131.486 35.2569 132.292 35.2575C134.272 35.294 136.25 35.1041 138.187 34.6915V38.4025C138.7 37.2256 139.559 36.2328 140.65 35.5565C141.798 34.8784 143.112 34.5361 144.445 34.5685C145.777 34.5479 147.083 34.9429 148.18 35.6985M144.449 52.9145C145.317 50.5174 145.701 47.972 145.58 45.4255C145.58 42.1429 145.277 39.8015 144.671 38.4015C144.065 37.0015 143.198 36.3015 142.071 36.3015C141.17 36.2963 140.299 36.6276 139.629 37.2305C138.88 37.9108 138.376 38.819 138.196 39.8145V54.3875C138.513 54.7459 138.905 55.0295 139.345 55.218C139.785 55.4065 140.261 55.4951 140.739 55.4775C141.55 55.4978 142.346 55.2606 143.013 54.7999C143.681 54.3392 144.185 53.6787 144.453 52.9135" fill="#231F20"/>
<path d="M83.5432 12.1165C83.0502 11.6226 82.4645 11.2309 81.8198 10.9638C81.1751 10.6968 80.484 10.5597 79.7862 10.5605C78.6365 10.5141 77.5081 10.8797 76.6041 11.5915C76.5041 11.6695 76.4212 11.7645 76.3292 11.8505V8.72449C77.1792 8.70239 78.0207 8.54787 78.8232 8.26649C79.8506 7.90526 80.7955 7.34222 81.6021 6.61049C82.4108 5.88089 83.0653 4.99687 83.5272 4.01049C83.9889 3.02239 84.2493 1.95226 84.2932 0.862492L84.3202 0.205492L83.6622 0.165492C82.025 0.0687724 80.3964 0.464836 78.9865 1.30259C77.5765 2.14034 76.45 3.38134 75.7522 4.86549C75.7195 4.93616 75.6862 5.00682 75.6522 5.07749C75.6215 5.00682 75.5882 4.93616 75.5522 4.86549C74.8566 3.37954 73.7306 2.13691 72.3201 1.29883C70.9096 0.460742 69.2798 0.0658875 67.6422 0.165492L66.9842 0.205492L67.0112 0.862492C67.0554 1.95362 67.3172 3.02491 67.7812 4.01349C68.2426 4.99983 68.8968 5.88385 69.7052 6.61349C70.512 7.34505 71.4568 7.90807 72.4842 8.26949C73.287 8.55083 74.1287 8.70535 74.9791 8.72749V12.2275C74.5117 11.6665 73.9188 11.2234 73.2484 10.934C72.5781 10.6446 71.849 10.517 71.1202 10.5615C69.7109 10.5618 68.3594 11.1217 67.3629 12.1182C66.3664 13.1147 65.8064 14.4662 65.8062 15.8755C65.8062 18.2815 66.9682 20.6345 68.7132 22.9595C70.5744 25.2952 72.5938 27.5004 74.7571 29.5595L75.4511 30.2545L76.1461 29.5595C78.3095 27.5004 80.3289 25.2952 82.1902 22.9595C83.9342 20.6335 85.0972 18.2815 85.0972 15.8755C85.0978 15.1776 84.9605 14.4864 84.6933 13.8417C84.4262 13.197 84.0343 12.6114 83.5402 12.1185M80.6252 21.7855C79.0305 23.7977 77.3023 25.7003 75.4522 27.4805C73.6027 25.6996 71.8751 23.7963 70.2812 21.7835C68.7812 19.7775 67.7742 17.7985 67.7742 15.8735C67.7742 15.4337 67.8608 14.9982 68.0291 14.5919C68.1974 14.1856 68.4441 13.8164 68.7551 13.5054C69.066 13.1944 69.4352 12.9477 69.8415 12.7794C70.2479 12.6111 70.6834 12.5245 71.1232 12.5245C73.6822 12.5245 74.4902 14.4655 75.4542 16.3925C76.3752 14.5505 77.5041 12.5245 79.7851 12.5245C80.6734 12.5245 81.5252 12.8773 82.1533 13.5054C82.7813 14.1335 83.1342 14.9853 83.1342 15.8735C83.1342 17.7975 82.1342 19.7735 80.6272 21.7835" fill="#37B34A"/>
</g>
</svg>
