<svg xmlns="http://www.w3.org/2000/svg" xmlns:xlink="http://www.w3.org/1999/xlink" width="20.877" height="20" viewBox="0 0 20.877 20">
  <defs>
    <clipPath id="clip-path">
      <rect id="Rectangle_167" data-name="Rectangle 167" width="20.877" height="20" fill="#231f20"/>
    </clipPath>
  </defs>
  <g id="Group_173" data-name="Group 173" transform="translate(0 0)">
    <g id="Group_170" data-name="Group 170" transform="translate(0 0)" clip-path="url(#clip-path)">
      <path id="Path_149" data-name="Path 149" d="M18.868,7.549a.917.917,0,0,1-.9-.753,7.983,7.983,0,0,0-3.26-5.134A.915.915,0,0,1,15.765.169a9.81,9.81,0,0,1,4,6.3.919.919,0,0,1-.9,1.077" transform="translate(1.094 0)" fill="#231f20"/>
      <path id="Path_150" data-name="Path 150" d="M.916,7.538a.868.868,0,0,1-.167-.016A.916.916,0,0,1,.015,6.456,9.816,9.816,0,0,1,4.049.176.915.915,0,1,1,5.1,1.673,7.994,7.994,0,0,0,1.815,6.789a.916.916,0,0,1-.9.749" transform="translate(0 0.001)" fill="#231f20"/>
      <path id="Path_151" data-name="Path 151" d="M3.5,6.789a.651.651,0,0,1-.636-.764A4.327,4.327,0,0,1,4.647,3.253.646.646,0,1,1,5.39,4.31a3.048,3.048,0,0,0-1.254,1.95.647.647,0,0,1-.634.528" transform="translate(0.218 0.24)" fill="#231f20"/>
      <path id="Path_152" data-name="Path 152" d="M15.981,6.789a.647.647,0,0,1-.634-.528,3.05,3.05,0,0,0-1.255-1.95.646.646,0,1,1,.743-1.057,4.335,4.335,0,0,1,1.782,2.772.645.645,0,0,1-.518.752.631.631,0,0,1-.118.012" transform="translate(1.055 0.24)" fill="#231f20"/>
      <path id="Path_153" data-name="Path 153" d="M10.278,15.856a4.356,4.356,0,0,1-1.855-.417.646.646,0,0,1,.551-1.169,3.053,3.053,0,0,0,2.312.123.646.646,0,1,1,.423,1.221,4.352,4.352,0,0,1-1.432.242" transform="translate(0.615 1.086)" fill="#231f20"/>
      <path id="Path_154" data-name="Path 154" d="M10.46,18.761a9.853,9.853,0,0,1-3.819-.774A.915.915,0,1,1,7.349,16.3a7.991,7.991,0,0,0,6.083.058.915.915,0,0,1,.677,1.7,9.882,9.882,0,0,1-3.649.7" transform="translate(0.464 1.24)" fill="#231f20"/>
    </g>
  </g>
</svg>
