<svg width="20" height="20" viewBox="0 0 20 20" fill="none" xmlns="http://www.w3.org/2000/svg">
<mask id="mask0_705_2434" style="mask-type:luminance" maskUnits="userSpaceOnUse" x="0" y="0" width="20" height="20">
<path d="M19.6978 0.470703H0.301758V19.4707H19.6978V0.470703Z" fill="white"/>
</mask>
<g mask="url(#mask0_705_2434)">
<path d="M9.88862 11.9289C9.38834 11.9156 8.9031 11.755 8.4936 11.4673C8.0841 11.1796 7.7685 10.7776 7.58629 10.3114C7.40408 9.84532 7.36334 9.33583 7.46917 8.84669C7.575 8.35754 7.82269 7.91046 8.18127 7.56134C8.53986 7.21223 8.99341 6.97659 9.48521 6.88389C9.97701 6.79119 10.4852 6.84554 10.9463 7.04016C11.4074 7.23477 11.8008 7.56101 12.0775 7.97806C12.3541 8.39512 12.5016 8.88447 12.5016 9.38494C12.4913 10.0686 12.2104 10.7203 11.7204 11.1972C11.2304 11.6741 10.5723 11.9372 9.88862 11.9289ZM9.88762 7.81494C9.57884 7.82339 9.2794 7.92269 9.02674 8.10042C8.77409 8.27814 8.57944 8.52641 8.46713 8.81417C8.35482 9.10193 8.32984 9.41642 8.39531 9.7183C8.46078 10.0202 8.61379 10.2961 8.83521 10.5115C9.05664 10.7268 9.33664 10.8722 9.64022 10.9293C9.9438 10.9864 10.2575 10.9527 10.542 10.8325C10.8266 10.7123 11.0694 10.5108 11.24 10.2534C11.4107 9.99591 11.5017 9.69384 11.5016 9.38494C11.4937 8.96338 11.3198 8.56197 11.0175 8.26798C10.7153 7.97398 10.3092 7.81117 9.88762 7.81494Z" fill="#37B44B"/>
<path d="M8.46864 7.64532L6.92664 4.03532C6.79575 3.7226 6.72888 3.38682 6.72999 3.04782C6.73111 2.70881 6.80018 2.37347 6.93312 2.06162C7.06606 1.74978 7.26018 1.46775 7.504 1.23221C7.74782 0.996674 8.03639 0.812413 8.35264 0.69032C8.60813 0.587286 8.87796 0.524214 9.15264 0.50332C9.65611 0.465153 10.1616 0.460476 10.6656 0.48932H10.7056C11.0448 0.51189 11.3762 0.60132 11.6807 0.752464C11.9852 0.903609 12.2568 1.11348 12.4799 1.37C12.7029 1.62653 12.873 1.92463 12.9804 2.24716C13.0878 2.56969 13.1304 2.91028 13.1056 3.24932C13.0815 3.53435 13.0084 3.81309 12.8896 4.07332C12.3296 5.30932 11.7566 6.55632 11.1966 7.79432C10.3766 6.76232 8.46764 7.64432 8.46764 7.64432" fill="#37B44B"/>
<path d="M12.0175 8.82817L16.2065 9.16017C16.5464 9.18387 16.8782 9.27446 17.183 9.42674C17.4877 9.57903 17.7594 9.79001 17.9824 10.0476C18.2054 10.3051 18.3753 10.6042 18.4824 10.9276C18.5895 11.251 18.6317 11.5924 18.6065 11.9322C18.5832 12.1978 18.5177 12.4581 18.4125 12.7032C18.2202 13.154 17.9921 13.5887 17.7305 14.0032C17.7165 14.0172 17.7165 14.0292 17.7035 14.0442C17.3215 14.621 16.7303 15.0269 16.0547 15.1761C15.3791 15.3254 14.672 15.2063 14.0825 14.8442C13.8361 14.6939 13.6164 14.5036 13.4325 14.2812C12.5595 13.2192 11.6855 12.1702 10.8125 11.1072C11.0572 11.0634 11.2887 10.9643 11.4893 10.8175C11.6899 10.6707 11.8543 10.48 11.9701 10.26C12.0858 10.04 12.1498 9.79648 12.1572 9.548C12.1645 9.29951 12.115 9.05263 12.0125 8.82617" fill="#37B44B"/>
<path d="M7.97769 8.89258L3.95169 9.13558C3.61324 9.15059 3.28109 9.23228 2.9743 9.37598C2.66751 9.51968 2.39211 9.72255 2.16392 9.97295C1.93573 10.2233 1.75923 10.5163 1.64456 10.8351C1.52988 11.1539 1.4793 11.4922 1.49569 11.8306C1.51176 12.0996 1.57189 12.3641 1.67369 12.6136C1.85842 13.0701 2.07738 13.512 2.32869 13.9356C2.34269 13.9496 2.34269 13.9616 2.35569 13.9766C2.72199 14.5606 3.30076 14.9795 3.96995 15.1449C4.63914 15.3104 5.34644 15.2095 5.94269 14.8636C6.19569 14.7172 6.4222 14.5293 6.61269 14.3076L9.31269 11.2006C8.83458 11.0637 8.42825 10.7466 8.17924 10.3161C7.93023 9.8856 7.85798 9.37528 7.97769 8.89258Z" fill="#37B44B"/>
<path d="M18.8469 8.21736C18.6499 8.21905 18.4585 8.15195 18.3057 8.02763C18.1529 7.90331 18.0483 7.72957 18.0099 7.53636C17.8366 6.60105 17.4797 5.70934 16.9598 4.91275C16.4399 4.11617 15.7673 3.4305 14.9809 2.89536C14.8905 2.83408 14.8133 2.75521 14.7541 2.66346C14.6948 2.57171 14.6547 2.46896 14.636 2.36134C14.6173 2.25373 14.6205 2.14345 14.6454 2.03711C14.6703 1.93076 14.7164 1.83052 14.7809 1.74236C14.9136 1.56183 15.1114 1.44001 15.3324 1.40268C15.5533 1.36536 15.7802 1.41545 15.9649 1.54236C16.9305 2.19981 17.7562 3.04201 18.3946 4.02034C19.0329 4.99867 19.4711 6.09375 19.6839 7.24236C19.7024 7.35058 19.6994 7.4614 19.6748 7.56842C19.6502 7.67543 19.6047 7.77651 19.5408 7.8658C19.4769 7.95509 19.3959 8.03081 19.3026 8.08858C19.2092 8.14636 19.1053 8.18503 18.9969 8.20236C18.9474 8.21136 18.8972 8.21705 18.8469 8.21736Z" fill="#37B44B"/>
<path d="M1.15274 8.20992C1.10205 8.20956 1.0515 8.20454 1.00174 8.19492C0.893465 8.17702 0.789817 8.13783 0.696793 8.07961C0.603768 8.02139 0.523212 7.9453 0.459787 7.85574C0.396362 7.76618 0.351327 7.66493 0.327287 7.55786C0.303248 7.45078 0.300682 7.34 0.319737 7.23192C0.538799 6.08559 0.98236 4.99387 1.6249 4.01959C2.26744 3.04531 3.09628 2.2077 4.06374 1.55492C4.24867 1.42876 4.47528 1.37911 4.69603 1.4164C4.91677 1.45369 5.1145 1.57501 5.24774 1.75492C5.31173 1.84347 5.35721 1.94401 5.38148 2.05053C5.40575 2.15705 5.4083 2.26737 5.38898 2.3749C5.36965 2.48243 5.32886 2.58496 5.26903 2.67637C5.20919 2.76778 5.13155 2.84619 5.04074 2.90692C4.25195 3.43836 3.5761 4.12062 3.05213 4.91438C2.52816 5.70815 2.16641 6.59775 1.98774 7.53192C1.94875 7.72414 1.84412 7.8968 1.69177 8.02032C1.53942 8.14384 1.34886 8.21152 1.15274 8.20992Z" fill="#37B44B"/>
<path d="M3.75781 7.74721C3.72089 7.74687 3.68407 7.74319 3.64781 7.73621C3.57134 7.72364 3.49814 7.696 3.43244 7.6549C3.36675 7.6138 3.30987 7.56005 3.26512 7.49679C3.22037 7.43352 3.18863 7.362 3.17176 7.28636C3.15488 7.21073 3.1532 7.1325 3.16681 7.05621C3.26349 6.55003 3.45953 6.06803 3.7436 5.63807C4.02767 5.20811 4.39413 4.8387 4.82181 4.55121C4.95252 4.46234 5.11256 4.42749 5.26839 4.45396C5.42422 4.48043 5.56377 4.56616 5.65781 4.69321C5.70308 4.75566 5.73527 4.8266 5.75246 4.90179C5.76965 4.97698 5.77149 5.05487 5.75785 5.13078C5.74422 5.2067 5.7154 5.27908 5.67312 5.34359C5.63084 5.4081 5.57598 5.46341 5.51181 5.50621C5.21093 5.7087 4.95309 5.96872 4.75314 6.2713C4.5532 6.57387 4.4151 6.91302 4.34681 7.26921C4.31871 7.40453 4.24475 7.526 4.13743 7.6131C4.03011 7.70019 3.89602 7.74756 3.75781 7.74721Z" fill="#37B44B"/>
<path d="M16.1287 7.74599C15.9905 7.74635 15.8564 7.69897 15.7491 7.61188C15.6418 7.52479 15.5678 7.40332 15.5397 7.26799C15.4712 6.91177 15.3329 6.57261 15.1328 6.27004C14.9327 5.96747 14.6747 5.70747 14.3737 5.50499C14.3096 5.4622 14.2547 5.40689 14.2124 5.34238C14.1701 5.27787 14.1413 5.20549 14.1277 5.12957C14.114 5.05365 14.1159 4.97577 14.1331 4.90058C14.1503 4.82539 14.1825 4.75444 14.2277 4.69199C14.3214 4.56453 14.461 4.47847 14.617 4.45198C14.773 4.42548 14.9332 4.46063 15.0637 4.54999C15.4917 4.83837 15.8584 5.20864 16.1427 5.63943C16.4269 6.07023 16.623 6.55303 16.7197 7.05999C16.7333 7.13628 16.7316 7.21451 16.7148 7.29015C16.6979 7.36578 16.6662 7.43731 16.6214 7.50057C16.5767 7.56384 16.5198 7.61758 16.4541 7.65868C16.3884 7.69978 16.3152 7.72742 16.2387 7.73999C16.2025 7.74704 16.1656 7.75072 16.1287 7.75099" fill="#37B44B"/>
<path d="M10.4218 16.7059C9.82811 16.7049 9.24152 16.5764 8.70183 16.3289C8.63137 16.2974 8.5679 16.2522 8.51517 16.1958C8.46243 16.1395 8.42149 16.0732 8.39475 16.0008C8.36802 15.9284 8.35602 15.8514 8.35947 15.7743C8.36291 15.6972 8.38174 15.6216 8.41483 15.5519C8.48606 15.4108 8.60927 15.3029 8.75849 15.2508C8.90772 15.1988 9.07132 15.2067 9.21483 15.2729C9.89036 15.5829 10.6589 15.6226 11.3628 15.3839C11.5121 15.333 11.6754 15.3422 11.818 15.4096C11.9606 15.477 12.0713 15.5972 12.1268 15.7449C12.1523 15.8179 12.1628 15.8953 12.1578 15.9724C12.1528 16.0496 12.1325 16.125 12.0979 16.1941C12.0633 16.2633 12.0152 16.3248 11.9565 16.3751C11.8977 16.4254 11.8295 16.4634 11.7558 16.4869C11.3274 16.6319 10.8781 16.7059 10.4258 16.7059" fill="#37B44B"/>
<path d="M10.4508 19.4722C9.23388 19.4713 8.02879 19.2336 6.90277 18.7722C6.80088 18.7321 6.70804 18.6721 6.62973 18.5955C6.55142 18.519 6.48923 18.4276 6.44682 18.3267C6.40441 18.2257 6.38265 18.1173 6.38281 18.0078C6.38298 17.8983 6.40506 17.79 6.44777 17.6892C6.53967 17.4855 6.7071 17.3254 6.91475 17.2427C7.12239 17.1601 7.35402 17.1613 7.56077 17.2462C9.36791 17.988 11.391 18.007 13.2118 17.2992C13.4192 17.2179 13.6501 17.2207 13.8555 17.307C14.0609 17.3932 14.2246 17.5562 14.3118 17.7612C14.3524 17.8628 14.3724 17.9716 14.3704 18.081C14.3684 18.1905 14.3446 18.2985 14.3004 18.3986C14.2562 18.4987 14.1924 18.589 14.1127 18.6642C14.0331 18.7393 13.9393 18.7978 13.8368 18.8362C12.7556 19.2551 11.6063 19.4704 10.4468 19.4712" fill="#37B44B"/>
</g>
</svg>
