<svg width="24" height="23" viewBox="0 0 24 23" fill="none" xmlns="http://www.w3.org/2000/svg">
<mask id="mask0_705_1675" style="mask-type:luminance" maskUnits="userSpaceOnUse" x="0" y="0" width="24" height="23">
<path d="M23.8259 0H0.783936V23H23.8259V0Z" fill="white"/>
</mask>
<g mask="url(#mask0_705_1675)">
<path d="M9.81282 0.734375L9.80182 3.63438H9.82382L9.81282 0.734375ZM3.34482 2.63137L5.78182 5.07737L5.79482 5.06137L3.34482 2.63137ZM14.5578 4.50037L13.9508 5.03537L13.9658 5.05137L14.5578 4.50037ZM3.94982 9.24438L1.51782 9.25537L3.94982 9.26137V9.24438ZM15.5888 9.24438V9.26137L16.2658 9.25037L15.5888 9.24438ZM6.13982 13.1444L5.43982 13.8084L6.15482 13.1614L6.13982 13.1444ZM13.5268 13.1444L13.5108 13.1594L14.1168 13.8084L13.5268 13.1444ZM9.81282 14.5614L9.82382 15.4614L9.83482 14.5614H9.81282Z" fill="#37B44B" stroke="#37B44B" stroke-linecap="round" stroke-linejoin="round"/>
<path d="M9.81292 12.5531C11.6349 12.5531 13.1119 11.0761 13.1119 9.25408C13.1119 7.43209 11.6349 5.95508 9.81292 5.95508C7.99093 5.95508 6.51392 7.43209 6.51392 9.25408C6.51392 11.0761 7.99093 12.5531 9.81292 12.5531Z" fill="#37B44B" stroke="#37B44B" stroke-linecap="round" stroke-linejoin="round"/>
<path d="M20.5559 15.4809C20.5798 16.0605 20.4816 16.6387 20.2675 17.1779C20.0535 17.7172 19.7285 18.2053 19.3136 18.6108C18.8987 19.0163 18.4031 19.33 17.8591 19.5316C17.3151 19.7332 16.7348 19.8181 16.1559 19.7809C14.7458 19.6658 13.4088 19.1054 12.3379 18.1809C12.5782 19.1194 13.0637 19.9773 13.7447 20.6665C14.4256 21.3557 15.2775 21.8516 16.2131 22.1033C17.1488 22.355 18.1344 22.3534 19.0693 22.0989C20.0041 21.8443 20.8545 21.3458 21.5333 20.6545C22.2121 19.9631 22.6949 19.1038 22.9324 18.1645C23.1698 17.2251 23.1533 16.2396 22.8845 15.3087C22.6158 14.3779 22.1044 13.5352 21.4029 12.8669C20.7013 12.1987 19.8347 11.729 18.8919 11.5059C19.8592 12.6177 20.4427 14.0115 20.5559 15.4809Z" fill="#37B44B" stroke="#37B44B" stroke-linecap="round" stroke-linejoin="round"/>
</g>
</svg>
