<?xml version="1.0" encoding="UTF-8"?><svg id="a" xmlns="http://www.w3.org/2000/svg" viewBox="0 0 247.42 385.41"><defs><style>.b{fill:#37b34a;}.b,.c{stroke-width:0px;}.c{fill:#dbf1de;}</style></defs><path class="b" d="M114.52,375.52c-27.3-27.3-55.53-55.53-76.94-84.08C12.63,258.17.5,228.58.5,201.01c0-18.18,7.09-35.28,19.95-48.15,12.87-12.87,29.97-19.95,48.15-19.95,21.04,0,36.09,6.29,48.6,20.36v-42.73c-10.73-.33-21.29-2.3-31.4-5.84-13.14-4.61-25.09-11.73-35.52-21.16-10.42-9.42-18.69-20.59-24.6-33.21-5.94-12.68-9.23-26.22-9.8-40.25l-.36-8.85,8.86-.53c2.09-.13,4.22-.19,6.31-.19,11.86,0,23.52,1.98,34.68,5.9,13.14,4.61,25.09,11.73,35.52,21.16,10.42,9.42,18.7,20.59,24.61,33.21.26.56.51,1.11.76,1.67.25-.56.5-1.12.76-1.67,5.91-12.61,14.18-23.79,24.6-33.21,10.43-9.43,22.38-16.55,35.52-21.16,11.16-3.91,22.82-5.9,34.68-5.9,2.1,0,4.22.06,6.31.19l8.86.53-.36,8.85c-.57,14.03-3.86,27.57-9.8,40.25-5.91,12.62-14.19,23.79-24.61,33.21-10.43,9.43-22.38,16.55-35.52,21.16-10.11,3.54-20.67,5.51-31.4,5.84v38.11c.13-.13.25-.25.38-.38.73-.73,1.49-1.49,2.31-2.14,11.28-9.02,24.24-13.23,40.8-13.23,18.18,0,35.28,7.09,48.15,19.95,12.87,12.87,19.95,29.97,19.95,48.15,0,27.58-12.13,57.16-37.08,90.43-21.41,28.54-49.63,56.76-76.92,84.06l-9.21,9.21-9.19-9.19ZM68.6,158.9c-11.24,0-21.81,4.38-29.77,12.34-7.96,7.96-12.34,18.53-12.34,29.77,0,21.86,10.4,46.36,31.81,74.89,17.88,23.84,42.1,48.65,65.41,72.05,23.29-23.36,47.5-48.16,65.42-72.05,21.4-28.54,31.81-53.03,31.81-74.89,0-11.24-4.38-21.81-12.34-29.77-7.96-7.96-18.53-12.34-29.77-12.34-27.86,0-42.28,24.18-54.66,48.94l-.45.89-.45-.89c-.69-1.38-1.38-2.76-2.06-4.14-11.41-23.04-22.19-44.8-52.6-44.8Z"/><path class="c" d="M221.84,1c2.1,0,4.19.06,6.29.19l8.37.5-.34,8.36c-.55,13.75-3.82,27.39-9.75,40.05-5.71,12.19-13.88,23.46-24.49,33.05-10.62,9.6-22.66,16.61-35.35,21.06-10.29,3.61-21,5.54-31.73,5.83v39.77c1.17-1.09,2.27-2.31,3.5-3.3,10.93-8.74,23.73-13.12,40.48-13.12,18.66,0,35.56,7.57,47.8,19.81,12.24,12.24,19.81,29.14,19.81,47.8,0,30.62-14.79,60.55-36.98,90.13-21.39,28.52-49.14,56.27-76.9,84.03l-8.84,8.83-8.83-8.83c-27.75-27.75-55.51-55.51-76.9-84.03C15.79,261.55,1,231.62,1,201.01c0-18.66,7.57-35.56,19.81-47.8,12.24-12.23,29.14-19.81,47.8-19.81,22.29,0,37.01,7.11,49.1,21.19v-44.55c-10.73-.28-21.44-2.22-31.73-5.83-12.69-4.45-24.74-11.46-35.35-21.06-10.6-9.59-18.78-20.86-24.49-33.05-5.93-12.67-9.2-26.31-9.75-40.05l-.34-8.36,8.37-.5c2.09-.13,4.19-.19,6.29-.19,11.65,0,23.33,1.95,34.51,5.87,12.69,4.45,24.73,11.46,35.35,21.06,10.61,9.59,18.78,20.87,24.49,33.05.42.9.83,1.8,1.22,2.7.39-.91.8-1.81,1.22-2.7,5.7-12.18,13.88-23.46,24.49-33.05,10.62-9.6,22.66-16.61,35.35-21.06,11.18-3.92,22.86-5.87,34.51-5.87M123.71,207.61c-12.26-24.52-22.55-49.22-55.11-49.22-11.76,0-22.41,4.77-30.13,12.48-7.71,7.71-12.48,18.37-12.48,30.13,0,24.49,12.76,49.67,31.91,75.19,17.79,23.72,41.48,48.05,65.81,72.46,24.33-24.4,48.03-48.74,65.82-72.46,19.14-25.52,31.91-50.7,31.91-75.19,0-11.76-4.77-22.41-12.49-30.13-7.71-7.71-18.37-12.48-30.13-12.48-29.03,0-43.39,25.79-55.11,49.22M221.84,0c-11.91,0-23.63,1.99-34.84,5.92-13.2,4.63-25.21,11.78-35.69,21.26-10.47,9.47-18.79,20.69-24.72,33.37-.1.22-.21.45-.31.67-.1-.22-.21-.45-.31-.67-5.93-12.67-14.25-23.9-24.72-33.37-10.48-9.48-22.49-16.63-35.69-21.26C54.33,1.99,42.61,0,30.7,0,28.59,0,26.45.06,24.35.19l-8.37.5-.98.06.04.98.34,8.36c.57,14.09,3.88,27.7,9.85,40.44,5.94,12.68,14.26,23.9,24.72,33.37,10.48,9.48,22.49,16.63,35.69,21.26,10,3.51,20.45,5.48,31.06,5.85v40.95c-12.44-13.51-27.39-19.56-48.1-19.56-18.31,0-35.54,7.14-48.5,20.1C7.14,165.47,0,182.69,0,201.01c0,27.69,12.16,57.37,37.18,90.73,21.44,28.58,49.68,56.82,76.99,84.13l8.83,8.83.71.71.71-.71,8.84-8.83c27.33-27.33,55.56-55.56,76.99-84.13,25.02-33.36,37.18-63.04,37.18-90.73,0-18.32-7.14-35.54-20.1-48.5-12.96-12.96-30.19-20.1-48.5-20.1-16.67,0-29.73,4.24-41.11,13.33-.66.53-1.28,1.12-1.88,1.71v-36.43c10.61-.38,21.06-2.35,31.06-5.85,13.2-4.63,25.21-11.79,35.69-21.26,10.47-9.46,18.78-20.69,24.72-33.37,5.96-12.74,9.28-26.35,9.84-40.44l.34-8.36.04-.98-.98-.06-8.37-.5C226.08.06,223.95,0,221.84,0h0ZM123.71,209.85l.89-1.79c5.83-11.65,12.24-23.81,20.9-33.16,9.66-10.43,20.56-15.5,33.31-15.5,11.11,0,21.56,4.33,29.42,12.19,7.86,7.86,12.19,18.31,12.19,29.42,0,21.75-10.37,46.15-31.71,74.59-17.8,23.74-41.84,48.39-65.01,71.64-23.19-23.28-47.24-47.94-65.01-71.64-21.33-28.44-31.71-52.84-31.71-74.59,0-11.11,4.33-21.56,12.19-29.42,7.86-7.86,18.31-12.19,29.42-12.19,30.1,0,40.82,21.63,52.16,44.52.68,1.38,1.37,2.76,2.06,4.14l.89,1.79h0Z"/></svg>