<?xml version="1.0" encoding="UTF-8"?><svg xmlns="http://www.w3.org/2000/svg" viewBox="0 0 1460.2 1955.83"><defs><style>.d{fill:none;}.d,.e,.f{stroke-width:0px;}.e{fill:#37b44b;isolation:isolate;opacity:.08;}.f{fill:#37b34a;}</style></defs><g id="a"><path id="b" class="e" d="M1158.45,1058.72c-37.31-80.31-105.08-142.44-188.33-172.64-77.75-28.3-144.53-29.59-210.01-7.51-7.21,2.45-14.32,5.25-21.41,8.24l66.75-183.39c50.67,16.95,103.67,25.91,157.09,26.54,68.41.76,136.27-12.17,199.61-38.02,63.38-25.66,120.99-63.74,169.43-111.99,48.52-48.39,86.9-105.98,112.89-169.38l15.71-38.23-38-16.48c-193.47-83.76-418.46-41.19-567.96,107.46-3.46,3.43-6.87,6.94-10.22,10.47-.29-4.86-.66-9.72-1.1-14.59-18.71-210.08-163.8-387.43-366.01-447.39L437.22,0l-12.57,39.37c-20.83,65.29-28.44,134.07-22.38,202.33,6.1,68.1,25.75,134.3,57.81,194.7,31.9,60.52,75.58,114.04,128.47,157.43,41.33,33.85,87.68,61.06,137.38,80.64l-75.24,206.71c-32.29-85.78-88.6-143.62-192.03-181.27-173.25-62.97-364.76,26.34-427.87,199.54-51.7,142.05-33.6,305.93,19.38,480.69,51.07,168.45,133,344.13,214.91,519.75l26.08,55.93,55.93-26.08c175.62-81.89,351.28-163.79,498.7-260.02,152.93-99.82,272.12-213.73,323.83-355.78,30.39-83.18,26.36-175.04-11.18-255.24ZM778.63,1566.77c-122.61,80.03-273.65,152.92-427.76,225.05-71.69-154.33-140.55-307.25-183.03-447.36-45.72-150.77-62.42-289.14-21.06-402.78,39.77-109.17,160.48-165.46,269.68-125.77,151.09,54.99,157.12,186.97,172.61,321.46,93.93-88.93,204.14-184.34,338.84-135.31,109.17,39.79,165.45,160.5,125.76,269.7-41.36,113.63-143.1,208.89-275.03,295h0Z"/></g><g id="c"><path class="f" d="M627.86,1300.05c-6.13-6.13-14.61-9.93-23.96-9.93-8.4,0-14.82,2.19-20.29,6.57-.62.5-1.17,1.11-1.76,1.66v-19.94c5.38-.14,10.75-1.11,15.91-2.92,6.36-2.23,12.4-5.75,17.72-10.56,5.32-4.81,9.41-10.46,12.28-16.57,2.97-6.35,4.61-13.19,4.89-20.08l.17-4.19-4.2-.25c-6.88-.41-13.84.53-20.45,2.85-6.36,2.23-12.4,5.74-17.72,10.56-5.32,4.81-9.42,10.46-12.28,16.57-.21.45-.41.9-.61,1.35-.2-.45-.4-.91-.61-1.35-2.86-6.11-6.96-11.76-12.28-16.57-5.32-4.81-11.36-8.33-17.72-10.56-6.61-2.32-13.58-3.26-20.45-2.85l-4.2.25.17,4.19c.28,6.89,1.92,13.73,4.89,20.08,2.86,6.11,6.96,11.76,12.27,16.57,5.32,4.81,11.36,8.33,17.72,10.56,5.16,1.81,10.53,2.78,15.91,2.92v22.33c-6.06-7.06-13.44-10.62-24.61-10.62-9.35,0-17.83,3.8-23.96,9.93-6.13,6.13-9.93,14.61-9.93,23.96,0,15.35,7.42,30.35,18.54,45.18,10.72,14.3,24.64,28.21,38.55,42.12l4.43,4.43,4.43-4.43c13.91-13.91,27.82-27.82,38.55-42.12,11.12-14.83,18.54-29.84,18.54-45.18,0-9.35-3.8-17.83-9.93-23.96ZM609.27,1361.7c-8.92,11.89-20.8,24.09-32.99,36.32-12.2-12.23-24.08-24.43-32.99-36.32-9.6-12.79-15.99-25.42-15.99-37.69,0-5.89,2.39-11.24,6.26-15.1,3.87-3.87,9.21-6.26,15.1-6.26,16.32,0,21.48,12.38,27.63,24.67,5.87-11.75,13.07-24.67,27.63-24.67,5.9,0,11.24,2.39,15.1,6.26,3.87,3.87,6.26,9.21,6.26,15.1,0,12.28-6.4,24.9-15.99,37.69Z"/><rect class="d" x="432.89" y="1175.61" width="288" height="288"/><rect class="d" x="480.89" y="1223.61" width="192" height="192"/></g></svg>