<svg width="24" height="23" viewBox="0 0 24 23" fill="none" xmlns="http://www.w3.org/2000/svg">
<mask id="mask0_705_2424" style="mask-type:luminance" maskUnits="userSpaceOnUse" x="0" y="0" width="24" height="23">
<path d="M23.8252 0H0.783203V23H23.8252V0Z" fill="white"/>
</mask>
<g mask="url(#mask0_705_2424)">
<path d="M9.81209 0.734375L9.80109 3.63438H9.82309L9.81209 0.734375ZM3.34409 2.63137L5.78109 5.07737L5.79409 5.06137L3.34409 2.63137ZM14.5571 4.50037L13.9501 5.03537L13.9651 5.05137L14.5571 4.50037ZM3.94909 9.24438L1.51709 9.25537L3.94909 9.26137V9.24438ZM15.5881 9.24438V9.26137L16.2651 9.25037L15.5881 9.24438ZM6.13909 13.1444L5.43909 13.8084L6.15409 13.1614L6.13909 13.1444ZM13.5261 13.1444L13.5101 13.1594L14.1161 13.8084L13.5261 13.1444ZM9.81209 14.5614L9.82309 15.4614L9.83409 14.5614H9.81209Z" fill="white" stroke="white" stroke-linecap="round" stroke-linejoin="round"/>
<path d="M9.81218 12.5531C11.6342 12.5531 13.1112 11.0761 13.1112 9.25408C13.1112 7.43209 11.6342 5.95508 9.81218 5.95508C7.9902 5.95508 6.51318 7.43209 6.51318 9.25408C6.51318 11.0761 7.9902 12.5531 9.81218 12.5531Z" fill="white" stroke="white" stroke-linecap="round" stroke-linejoin="round"/>
<path d="M20.5549 15.4809C20.5788 16.0605 20.4806 16.6387 20.2666 17.1779C20.0525 17.7172 19.7275 18.2053 19.3126 18.6108C18.8977 19.0163 18.4022 19.33 17.8582 19.5316C17.3142 19.7332 16.7339 19.8181 16.1549 19.7809C14.7448 19.6658 13.4078 19.1054 12.3369 18.1809C12.5773 19.1194 13.0628 19.9773 13.7437 20.6665C14.4246 21.3557 15.2765 21.8516 16.2122 22.1033C17.1478 22.355 18.1335 22.3534 19.0683 22.0989C20.0031 21.8443 20.8535 21.3458 21.5323 20.6545C22.2111 19.9631 22.6939 19.1038 22.9314 18.1645C23.1688 17.2251 23.1523 16.2396 22.8836 15.3087C22.6148 14.3779 22.1035 13.5352 21.4019 12.8669C20.7003 12.1987 19.8337 11.729 18.8909 11.5059C19.8583 12.6177 20.4418 14.0115 20.5549 15.4809Z" fill="white" stroke="white" stroke-linecap="round" stroke-linejoin="round"/>
</g>
</svg>
