<svg width="20" height="20" viewBox="0 0 20 20" fill="none" xmlns="http://www.w3.org/2000/svg">
<mask id="mask0_705_1888" style="mask-type:luminance" maskUnits="userSpaceOnUse" x="0" y="0" width="20" height="20">
<path d="M19.1728 0.470703H0.301758V19.4707H19.1728V0.470703Z" fill="white"/>
</mask>
<g mask="url(#mask0_705_1888)">
<path d="M9.62899 11.9298C9.12579 11.93 8.63383 11.781 8.21534 11.5015C7.79685 11.2221 7.47063 10.8249 7.27792 10.36C7.08522 9.8952 7.0347 9.38365 7.13275 8.8901C7.23079 8.39655 7.47301 7.94316 7.82875 7.58727C8.1845 7.23139 8.63779 6.989 9.13131 6.89075C9.62482 6.79251 10.1364 6.84283 10.6013 7.03535C11.0662 7.22787 11.4636 7.55394 11.7432 7.97232C12.0228 8.3907 12.172 8.8826 12.172 9.3858C12.1712 10.0601 11.903 10.7066 11.4263 11.1834C10.9496 11.6603 10.3033 11.9287 9.62899 11.9298ZM9.62899 7.8158C9.31819 7.8156 9.01431 7.90759 8.75581 8.08014C8.49731 8.25269 8.29579 8.49804 8.17676 8.78514C8.05773 9.07224 8.02654 9.3882 8.08712 9.69304C8.14771 9.99788 8.29735 10.2779 8.51712 10.4977C8.73689 10.7174 9.01691 10.8671 9.32174 10.9277C9.62658 10.9882 9.94254 10.9571 10.2296 10.838C10.5167 10.719 10.7621 10.5175 10.9346 10.259C11.1072 10.0005 11.1992 9.6966 11.199 9.3858C11.1982 8.96965 11.0325 8.57078 10.7383 8.27652C10.444 7.98226 10.0451 7.81659 9.62899 7.8158Z" fill="white"/>
<path d="M8.24774 7.64536L6.74774 4.03536C6.59333 3.66212 6.52939 3.25764 6.56115 2.85496C6.59292 2.45229 6.71948 2.06283 6.9305 1.71841C7.14152 1.37399 7.43102 1.08437 7.77535 0.873198C8.11968 0.662028 8.50908 0.5353 8.91174 0.503364C9.40185 0.465138 9.89399 0.46046 10.3847 0.489364H10.4277C10.8335 0.524069 11.2251 0.655137 11.5699 0.871668C11.9148 1.0882 12.203 1.38394 12.4105 1.73429C12.6181 2.08464 12.739 2.47947 12.7632 2.88596C12.7874 3.29246 12.7142 3.69885 12.5497 4.07136C12.0047 5.30736 11.4497 6.55436 10.9027 7.79236C10.1027 6.76036 8.24774 7.64236 8.24774 7.64236" fill="white"/>
<path d="M11.6997 8.82817L15.7757 9.16017C16.1782 9.19411 16.5671 9.32267 16.9105 9.53539C17.2539 9.7481 17.5422 10.0389 17.7519 10.3842C17.9615 10.7295 18.0867 11.1194 18.1171 11.5222C18.1474 11.9251 18.0822 12.3293 17.9267 12.7022C17.7398 13.1522 17.5178 13.5869 17.2627 14.0022C17.2487 14.0162 17.2487 14.0282 17.2367 14.0432C17.0196 14.3876 16.7234 14.6752 16.3727 14.882C16.022 15.0888 15.627 15.2089 15.2205 15.2322C14.814 15.2555 14.4079 15.1813 14.0359 15.0159C13.6638 14.8505 13.3367 14.5986 13.0817 14.2812C12.2327 13.2192 11.3817 12.1702 10.5327 11.1072C10.7732 11.0569 10.9995 10.9535 11.1948 10.8044C11.3901 10.6553 11.5496 10.4644 11.6615 10.2457C11.7734 10.0269 11.8349 9.78587 11.8416 9.54024C11.8482 9.29462 11.7997 9.05063 11.6997 8.82617" fill="white"/>
<path d="M7.76957 8.89258L3.85257 9.13558C3.17842 9.17626 2.54804 9.48302 2.10004 9.98841C1.65203 10.4938 1.4231 11.1564 1.46357 11.8306C1.47905 12.0991 1.53746 12.3635 1.63657 12.6136C1.81459 13.0693 2.02617 13.5112 2.26957 13.9356C2.28357 13.9496 2.28357 13.9616 2.29557 13.9766C2.50335 14.3266 2.79206 14.6217 3.13747 14.837C3.48288 15.0524 3.87491 15.1818 4.28066 15.2143C4.68641 15.2468 5.09404 15.1815 5.46935 15.024C5.84465 14.8664 6.17668 14.621 6.43757 14.3086L9.06957 11.2036C8.59657 11.0605 8.19718 10.7402 7.9549 10.3095C7.71263 9.87877 7.64622 9.3711 7.76957 8.89258Z" fill="white"/>
<path d="M18.3446 8.21727C18.1507 8.21688 17.963 8.14852 17.8143 8.0241C17.6656 7.89968 17.5652 7.72706 17.5306 7.53627C17.1989 5.66085 16.1392 3.99262 14.5826 2.89527C14.4036 2.76823 14.2823 2.57528 14.2456 2.35886C14.2088 2.14244 14.2595 1.92029 14.3866 1.74127C14.5136 1.56225 14.7066 1.44102 14.923 1.40427C15.1394 1.36751 15.3616 1.41823 15.5406 1.54527C17.451 2.89385 18.7514 4.94252 19.1586 7.24527C19.1794 7.36431 19.174 7.48646 19.1427 7.6032C19.1114 7.71993 19.0551 7.82845 18.9776 7.92118C18.9001 8.0139 18.8033 8.08861 18.694 8.1401C18.5847 8.19158 18.4654 8.2186 18.3446 8.21927" fill="white"/>
<path d="M1.12975 8.20962C1.07905 8.20952 1.02848 8.20449 0.978752 8.19462C0.763111 8.15476 0.572091 8.03098 0.447607 7.85044C0.323123 7.6699 0.275344 7.44735 0.314752 7.23162C0.735291 4.93282 2.04585 2.89278 3.96175 1.55462C4.05049 1.4901 4.15119 1.44387 4.25797 1.41864C4.36475 1.39341 4.47548 1.38969 4.58372 1.40768C4.69196 1.42567 4.79553 1.46502 4.88841 1.52343C4.98129 1.58184 5.06161 1.65816 5.12471 1.74792C5.1878 1.83769 5.2324 1.93911 5.25591 2.04628C5.27942 2.15346 5.28137 2.26424 5.26165 2.37217C5.24192 2.4801 5.20091 2.58303 5.14101 2.67496C5.08111 2.76689 5.00352 2.84598 4.91275 2.90762C3.35194 3.99738 2.28426 5.65908 1.94175 7.53162C1.90655 7.72143 1.80613 7.89297 1.65786 8.01659C1.5096 8.1402 1.32279 8.20913 1.12975 8.20962Z" fill="white"/>
<path d="M3.66459 7.74681C3.57954 7.74595 3.49568 7.72668 3.41878 7.69033C3.34189 7.65397 3.27378 7.60139 3.21914 7.53621C3.1645 7.47102 3.12463 7.39477 3.10227 7.31271C3.0799 7.23064 3.07558 7.14471 3.08959 7.06081C3.27372 6.04436 3.8525 5.14203 4.69959 4.55081C4.82639 4.46872 4.98007 4.43894 5.12835 4.46775C5.27663 4.49655 5.40799 4.5817 5.49483 4.70529C5.58167 4.82889 5.61724 4.98133 5.59408 5.1306C5.57091 5.27987 5.49081 5.41435 5.37059 5.50581C4.77543 5.92129 4.36827 6.55484 4.23759 7.26881C4.21267 7.40274 4.1418 7.52377 4.0372 7.61103C3.93259 7.6983 3.80081 7.74632 3.66459 7.74681Z" fill="white"/>
<path d="M15.7006 7.74681C15.5644 7.74632 15.4326 7.6983 15.328 7.61103C15.2234 7.52377 15.1525 7.40274 15.1276 7.26881C14.9964 6.55476 14.589 5.92125 13.9936 5.50581C13.8734 5.41435 13.7933 5.27987 13.7701 5.1306C13.7469 4.98133 13.7825 4.82889 13.8693 4.70529C13.9562 4.5817 14.0875 4.49655 14.2358 4.46775C14.3841 4.43894 14.5378 4.46872 14.6646 4.55081C15.5115 5.14238 16.0905 6.04448 16.2756 7.06081C16.2896 7.1362 16.2886 7.21361 16.2727 7.28862C16.2567 7.36362 16.2261 7.43474 16.1827 7.49791C16.1392 7.56107 16.0837 7.61504 16.0193 7.65672C15.955 7.6984 15.883 7.72698 15.8076 7.74081C15.7723 7.74785 15.7365 7.75153 15.7006 7.75181" fill="white"/>
<path d="M10.1479 16.7069C9.56825 16.7061 8.99597 16.5774 8.47185 16.3299C8.40245 16.2971 8.34019 16.2509 8.28864 16.194C8.23708 16.1372 8.19723 16.0707 8.17137 15.9984C8.14551 15.9261 8.13414 15.8494 8.13791 15.7727C8.14168 15.696 8.16052 15.6208 8.19335 15.5514C8.22618 15.482 8.27236 15.4198 8.32925 15.3682C8.38615 15.3167 8.45263 15.2768 8.52492 15.251C8.59721 15.2251 8.67389 15.2137 8.75058 15.2175C8.82726 15.2213 8.90245 15.2401 8.97185 15.2729C9.62693 15.5829 10.3776 15.6228 11.0619 15.3839C11.1356 15.3517 11.2153 15.335 11.2958 15.335C11.3764 15.335 11.456 15.3516 11.5298 15.3839C11.6036 15.4162 11.6699 15.4633 11.7246 15.5224C11.7793 15.5816 11.8211 15.6513 11.8476 15.7274C11.874 15.8035 11.8844 15.8842 11.8781 15.9645C11.8718 16.0448 11.849 16.1229 11.8111 16.1939C11.7732 16.265 11.721 16.3274 11.6578 16.3773C11.5946 16.4272 11.5218 16.4635 11.4439 16.4839C11.0278 16.6289 10.5904 16.7029 10.1499 16.7029" fill="white"/>
<path d="M10.1757 19.472C8.9899 19.4708 7.81629 19.2328 6.7237 18.772C6.6235 18.73 6.53256 18.6687 6.45607 18.5915C6.37958 18.5143 6.31904 18.4228 6.2779 18.3223C6.23676 18.2217 6.21584 18.114 6.21632 18.0054C6.2168 17.8967 6.23867 17.7892 6.2807 17.689C6.32272 17.5888 6.38407 17.4979 6.46123 17.4214C6.5384 17.3449 6.62988 17.2844 6.73045 17.2432C6.93355 17.1602 7.16134 17.1612 7.3637 17.246C9.11829 17.9884 11.0951 18.0074 12.8637 17.299C13.0675 17.2179 13.2952 17.221 13.4967 17.3077C13.6982 17.3945 13.857 17.5577 13.9382 17.7615C14.0194 17.9653 14.0162 18.1931 13.9295 18.3946C13.8427 18.5961 13.6795 18.7549 13.4757 18.836C12.4258 19.2546 11.306 19.4711 10.1757 19.472Z" fill="white"/>
</g>
</svg>
