<svg id="Group_69" data-name="Group 69" xmlns="http://www.w3.org/2000/svg" xmlns:xlink="http://www.w3.org/1999/xlink" width="33" height="32.77" viewBox="0 0 33 32.77">
  <defs>
    <clipPath id="clip-path">
      <rect id="Rectangle_50" data-name="Rectangle 50" width="33" height="32.77" fill="#37b44b" stroke="#37b44b" stroke-width="1"/>
    </clipPath>
  </defs>
  <g id="Group_61" data-name="Group 61" clip-path="url(#clip-path)">
    <path id="Path_69" data-name="Path 69" d="M84.278,81.668a9.937,9.937,0,0,1,4.667-4.39.537.537,0,0,0,.192-.733.548.548,0,0,0-.733-.192,10.878,10.878,0,0,0-5.051,4.774c-.324.61.6,1.152.926.541" transform="translate(-78.224 -70.739)" fill="#37b44b" stroke="#37b44b" stroke-width="1"/>
    <path id="Path_70" data-name="Path 70" d="M88.608,356.811a9.375,9.375,0,0,1-4.4-4.142c-.306-.576-1.178-.065-.873.51a10.263,10.263,0,0,0,4.765,4.5.517.517,0,0,0,.692-.181.507.507,0,0,0-.181-.692" transform="translate(-76.746 -330.091)" fill="#37b44b" stroke="#37b44b" stroke-width="1"/>
    <path id="Path_71" data-name="Path 71" d="M343.926,77.089a8.638,8.638,0,0,1,4.063,3.819c.282.531,1.086.06.8-.47a9.457,9.457,0,0,0-4.4-4.153.476.476,0,0,0-.638.167.467.467,0,0,0,.167.638" transform="translate(-320.989 -70.683)" fill="#37b44b" stroke="#37b44b" stroke-width="1"/>
    <path id="Path_72" data-name="Path 72" d="M348.325,352.669a9.311,9.311,0,0,1-4.38,4.117.5.5,0,0,0-.18.687.513.513,0,0,0,.687.18,10.192,10.192,0,0,0,4.74-4.477c.3-.572-.564-1.079-.867-.507" transform="translate(-321.315 -329.574)" fill="#37b44b" stroke="#37b44b" stroke-width="1"/>
    <path id="Path_74" data-name="Path 74" d="M215.786,56.613c.861.568.667,1.67.667,2.56a.449.449,0,0,0,0,.071c0-.013-.065.032-.025.03-.052,0-.106,0-.158,0h-4.627c-.069,0-.04.03-.08-.034,0,0,.01-.261.01-.318,0-.826-.139-1.766.651-2.3a.648.648,0,0,0,.229-.873.641.641,0,0,0-.873-.229,2.806,2.806,0,0,0-1.265,2.047,11.629,11.629,0,0,0-.018,1.244,1.588,1.588,0,0,0,.6,1.532,1.779,1.779,0,0,0,.993.205h4.535a1.323,1.323,0,0,0,1.3-1.3c.019-.3,0-.61,0-.912a5,5,0,0,0-.093-1.207,2.782,2.782,0,0,0-1.206-1.62c-.689-.455-1.327.651-.644,1.1" transform="translate(-197.514 -52.038)" fill="#37b44b" stroke="#37b44b" stroke-width="1"/>
    <path id="Path_75" data-name="Path 75" d="M236.35,401.609a1.071,1.071,0,1,1-1.071-1.071,1.083,1.083,0,0,1,1.071,1.071.638.638,0,0,0,1.276,0,2.347,2.347,0,1,0-2.347,2.346,2.384,2.384,0,0,0,2.347-2.346.638.638,0,0,0-1.276,0" transform="translate(-218.78 -375.004)" fill="#37b44b" stroke="#37b44b" stroke-width="1"/>
    <path id="Path_76" data-name="Path 76" d="M215.786,455.876c.861.568.667,1.67.667,2.56a.449.449,0,0,0,0,.071c0-.013-.065.032-.025.03-.052,0-.106,0-.158,0h-4.627c-.069,0-.04.03-.08-.034,0,0,.01-.261.01-.318,0-.826-.139-1.766.651-2.3a.648.648,0,0,0,.229-.873.641.641,0,0,0-.873-.229,2.806,2.806,0,0,0-1.265,2.047,11.628,11.628,0,0,0-.018,1.244,1.587,1.587,0,0,0,.6,1.531,1.779,1.779,0,0,0,.993.205h4.535a1.323,1.323,0,0,0,1.3-1.3c.019-.3,0-.61,0-.912a5,5,0,0,0-.093-1.207,2.782,2.782,0,0,0-1.206-1.62c-.689-.455-1.327.651-.644,1.1" transform="translate(-197.514 -427.042)" fill="#37b44b" stroke="#37b44b" stroke-width="1"/>
    <path id="Path_77" data-name="Path 77" d="M446.645,201.979a1.071,1.071,0,1,1-1.071-1.071,1.083,1.083,0,0,1,1.071,1.071.638.638,0,0,0,1.276,0,2.347,2.347,0,1,0-2.347,2.347,2.384,2.384,0,0,0,2.347-2.347.638.638,0,0,0-1.276,0" transform="translate(-416.298 -187.503)" fill="#37b44b" stroke="#37b44b" stroke-width="1"/>
    <path id="Path_78" data-name="Path 78" d="M426.081,256.245c.861.568.667,1.67.667,2.56a.457.457,0,0,0,0,.071c0-.013-.065.032-.025.03-.052,0-.106,0-.158,0H421.94c-.069,0-.04.03-.08-.034,0,0,.01-.261.01-.318,0-.826-.139-1.766.651-2.3a.648.648,0,0,0,.229-.873.641.641,0,0,0-.873-.229,2.806,2.806,0,0,0-1.265,2.047,11.624,11.624,0,0,0-.018,1.244,1.588,1.588,0,0,0,.6,1.532,1.778,1.778,0,0,0,.993.205h4.535a1.323,1.323,0,0,0,1.3-1.3c.019-.3,0-.61,0-.912a5.007,5.007,0,0,0-.093-1.207,2.782,2.782,0,0,0-1.206-1.62c-.689-.455-1.327.651-.644,1.1" transform="translate(-395.032 -239.541)" fill="#37b44b" stroke="#37b44b" stroke-width="1"/>
    <path id="Path_79" data-name="Path 79" d="M26.057,201.979a1.071,1.071,0,1,1-1.071-1.071,1.083,1.083,0,0,1,1.071,1.071.638.638,0,0,0,1.276,0,2.347,2.347,0,1,0-2.347,2.347,2.384,2.384,0,0,0,2.347-2.347.638.638,0,0,0-1.276,0" transform="translate(-21.264 -187.503)" fill="#37b44b" stroke="#37b44b" stroke-width="1"/>
    <path id="Path_80" data-name="Path 80" d="M5.495,256.245c.861.568.667,1.67.667,2.56a.453.453,0,0,0,0,.071c0-.013-.064.032-.025.03-.052,0-.106,0-.158,0H1.354c-.069,0-.04.03-.08-.034,0,0,.01-.261.01-.318,0-.826-.139-1.766.651-2.3a.648.648,0,0,0,.229-.873.641.641,0,0,0-.873-.229A2.805,2.805,0,0,0,.026,257.2a11.628,11.628,0,0,0-.018,1.244,1.588,1.588,0,0,0,.6,1.532,1.779,1.779,0,0,0,.993.205H6.135a1.324,1.324,0,0,0,1.3-1.3c.019-.3,0-.61,0-.912a5.007,5.007,0,0,0-.093-1.207,2.782,2.782,0,0,0-1.206-1.62c-.689-.455-1.327.651-.644,1.1" transform="translate(0 -239.54)" fill="#37b44b" stroke="#37b44b" stroke-width="1"/>
    <path id="Path_81" data-name="Path 81" d="M236.35,2.347a1.071,1.071,0,1,1-1.071-1.071,1.083,1.083,0,0,1,1.071,1.071.638.638,0,0,0,1.276,0,2.347,2.347,0,1,0-4.693,0,2.347,2.347,0,0,0,4.693,0,.638.638,0,0,0-1.276,0" transform="translate(-218.78 0)" fill="#37b44b" stroke="#37b44b" stroke-width="1"/>
  </g>
</svg>
