<svg id="Group_67" data-name="Group 67" xmlns="http://www.w3.org/2000/svg" xmlns:xlink="http://www.w3.org/1999/xlink" width="31" height="32.838" viewBox="0 0 31 32.838">
  <defs>
    <clipPath id="clip-path">
      <rect id="Rectangle_53" data-name="Rectangle 53" width="31" height="32.838" fill="#37b44b" stroke="#37b44b" stroke-width="1"/>
    </clipPath>
  </defs>
  <g id="Group_66" data-name="Group 66" transform="translate(0 0)" clip-path="url(#clip-path)">
    <path id="Path_96" data-name="Path 96" d="M19,27.7a7.373,7.373,0,1,0-7.373-7.373A7.379,7.379,0,0,0,19,27.7m0-13.348a5.975,5.975,0,1,1-5.975,5.975A5.981,5.981,0,0,1,19,14.348" transform="translate(-3.503 -3.9)" fill="#37b44b" stroke="#37b44b" stroke-width="1"/>
    <path id="Path_97" data-name="Path 97" d="M2.558,26.849,6.38,25.521a12.807,12.807,0,0,0,5.793,3.347l.762,3.969h5.122l.762-3.969a12.867,12.867,0,0,0,5.793-3.347l3.823,1.328L31,22.411,27.953,19.77a13,13,0,0,0,0-6.709L31,10.42,28.435,5.982,24.613,7.31a12.8,12.8,0,0,0-5.793-3.347L18.065,0H12.942l-.762,3.969A12.871,12.871,0,0,0,6.387,7.317L2.565,5.989,0,10.427l3.047,2.642a13,13,0,0,0,0,6.709L0,22.418ZM4.64,20.238,4.507,19.8A11.569,11.569,0,0,1,4,16.422a11.34,11.34,0,0,1,.51-3.382l.133-.433L1.782,10.133l1.4-2.439L6.772,8.938,7.079,8.6A11.467,11.467,0,0,1,12.921,5.22l.447-.1.713-3.725H16.9l.713,3.725.447.1A11.418,11.418,0,0,1,23.9,8.6l.307.335,3.585-1.244,1.4,2.439-2.858,2.474.133.433a11.569,11.569,0,0,1,.51,3.382,11.34,11.34,0,0,1-.51,3.382l-.133.433L29.2,22.712l-1.4,2.439-3.585-1.244-.307.335a11.463,11.463,0,0,1-5.842,3.383l-.447.1L16.9,31.454H14.081l-.713-3.725-.447-.1a11.407,11.407,0,0,1-5.842-3.375l-.307-.335L3.187,25.165l-1.4-2.439Z" transform="translate(0 0)" fill="#37b44b" stroke="#37b44b" stroke-width="1"/>
  </g>
</svg>
