<svg id="Group_68" data-name="Group 68" xmlns="http://www.w3.org/2000/svg" xmlns:xlink="http://www.w3.org/1999/xlink" width="30" height="30.574" viewBox="0 0 30 30.574">
  <defs>
    <clipPath id="clip-path">
      <rect id="Rectangle_49" data-name="Rectangle 49" width="30" height="30.574" fill="#37b44b" stroke="#fff" stroke-width="0.15"/>
    </clipPath>
  </defs>
  <g id="Group_59" data-name="Group 59" clip-path="url(#clip-path)">
    <path id="Path_66" data-name="Path 66" d="M29.682,17.029a2.3,2.3,0,0,1,2.276-2.308,2.266,2.266,0,0,1,2.287,2.3A2.3,2.3,0,0,1,32,19.337a2.329,2.329,0,0,1-2.319-2.308" transform="translate(-16.391 -8.13)" fill="#37b44b" stroke="#fff" stroke-width="0.15"/>
    <path id="Path_67" data-name="Path 67" d="M32.577,37.075a1.115,1.115,0,0,1-.286.54A4.26,4.26,0,0,1,29.243,39a6.869,6.869,0,0,1-1.62-.085,2.4,2.4,0,0,1-1.937-2.837c.265-1.662.561-3.3.847-4.954.085-.5.191-.995.254-1.493a1.593,1.593,0,0,0-.021-.55.592.592,0,0,0-.561-.54,4.288,4.288,0,0,1-.529-.053,2.055,2.055,0,0,1-.625-.265.463.463,0,0,1,.106-.8,1.327,1.327,0,0,1,.572-.127c.752-.011,1.514,0,2.255,0h2.255a.814.814,0,0,1,.89.815,4.916,4.916,0,0,1-.212,1.567c-.275,1.556-.571,3.1-.847,4.647-.095.529-.19,1.059-.275,1.6a2.6,2.6,0,0,0,0,.5.812.812,0,0,0,1.143.773,3.09,3.09,0,0,0,.572-.265c.18-.085.36-.2.55-.275.328-.126.593.086.519.424" transform="translate(-13.729 -15.07)" fill="#37b44b" stroke="#fff" stroke-width="0.15"/>
    <path id="Path_68" data-name="Path 68" d="M4.337,30.574H4.215c-1.182-.007-1.908-.317-2.218-.947a1.39,1.39,0,0,1,.2-1.5l1.644-2.195a2.5,2.5,0,0,0,.351-.525,15.062,15.062,0,1,1,6.073,3.823.5.5,0,0,0-.137.047,15.337,15.337,0,0,1-1.7.681c-.2.062-.381.11-.563.157l-.254.067a12.516,12.516,0,0,1-3.275.392M15.005,2.117a12.886,12.886,0,0,0-9.116,22l.128.129L6.1,24.4a2.256,2.256,0,0,1,.116,1.64A3.873,3.873,0,0,1,5.535,27.2L4.6,28.454a10.023,10.023,0,0,0,2.447-.314l.285-.076c.146-.037.293-.074.439-.121a13.356,13.356,0,0,0,1.392-.553,2.705,2.705,0,0,1,1.075-.292l.33,0,.171.061a12.727,12.727,0,0,0,4.26.728,12.883,12.883,0,0,0,0-25.765" fill="#37b44b" stroke="#fff" stroke-width="0.15"/>
  </g>
</svg>
